<?xml version="1.0" encoding="utf-8"?>
<!-- Generator: Adobe Illustrator 26.5.0, SVG Export Plug-In . SVG Version: 6.00 Build 0)  -->
<svg version="1.1" id="Layer_1" xmlns="http://www.w3.org/2000/svg" xmlns:xlink="http://www.w3.org/1999/xlink" x="0px" y="0px"
	 viewBox="0 0 691 563.3" style="enable-background:new 0 0 691 563.3;" xml:space="preserve">
<style type="text/css">
	.st0{fill:url(#SVGID_1_);}
	.st1{fill:#FFFFFF;}
	.st2{opacity:0.31;}
	.st3{fill:#F2F2F2;}
	.st4{fill:#1B1464;}
	.st5{opacity:0.31;fill:#FFFFFF;stroke:#1B1464;stroke-width:4;stroke-linecap:round;stroke-linejoin:round;stroke-miterlimit:10;}
	.st6{fill:#476CA9;}
	.st7{fill:url(#SVGID_00000082342708489139690460000011874246143268130438_);}
	.st8{fill:url(#SVGID_00000072968277809243768050000009843882622115347599_);}
	.st9{fill:url(#SVGID_00000053505625603123373800000018383838603302539685_);}
	.st10{fill:url(#SVGID_00000083081858593321033000000003379733125167794604_);}
	.st11{fill:url(#SVGID_00000031168145451443598560000001605900464282687900_);}
	.st12{fill:url(#SVGID_00000085230573059809009560000006126504033272609930_);}
	.st13{fill:url(#SVGID_00000105429067315099569630000000780415401463336581_);}
	.st14{fill:url(#SVGID_00000065794605617447115440000008514938057067125421_);}
	.st15{fill:url(#SVGID_00000078750815255649151360000001403989636667072898_);}
	.st16{fill:url(#SVGID_00000008839890979576806400000013431941635260939650_);}
	.st17{fill:url(#SVGID_00000018215183323672962660000012925757034496921238_);}
	.st18{fill:url(#SVGID_00000078732973667882416700000016290661952837778859_);}
	.st19{fill:url(#SVGID_00000149363945277134092690000007941004244262512571_);}
	.st20{fill:url(#SVGID_00000150099873922279764750000003760785598320586150_);}
	.st21{fill:url(#SVGID_00000044172946706444335830000016555681895405281185_);}
	.st22{fill:#476CA9;stroke:#1B1464;stroke-width:3;stroke-linecap:round;stroke-linejoin:round;stroke-miterlimit:10;}
</style>
<g class="st2">
	<path class="st3" d="M98.3,561.3c-13.2,0-23.9-9.5-23.9-21.3V346.6c0-2.9-2.5-5.3-5.6-5.3H10.3c-3.3,0-6.1-1.8-7.5-4.7
		c-1.3-2.8-0.9-5.9,1.1-8.3l115.4-138.6c0.4-0.5,0.7-0.9,1.1-1.3l2.8-3.3c1.6-1.9,3.9-3,6.4-3c0.5,0,1.1,0.1,1.6,0.2
		c0.4,0.1,0.8,0.1,1.2,0.1c0.1,0,0.3,0,0.4,0c0.5,0,0.9-0.1,1.4-0.1H434c3.2,0,5.8-2.4,5.8-5.3v-12.5c0-2.9-2.5-5.3-5.6-5.3H432
		c-5.4,0-9.9-2.8-11.9-7.2c-1.7-3.8-1-7.9,1.9-11.1L544.2,6.2c2.4-2.7,6.1-4.2,10-4.2s7.5,1.5,10,4.2L686.2,141
		c2.9,3.2,3.6,7.3,1.9,11.1c-2,4.4-6.5,7.2-11.9,7.2h-1c-3.1,0-5.6,2.4-5.6,5.3v378.7c0,9.9-9.1,18-20.3,18H98.3z"/>
	<path class="st4" d="M554.1,4c3.3,0,6.4,1.3,8.5,3.6l122.1,134.8c2.4,2.6,2.9,5.9,1.6,8.9c-1.3,2.9-4.6,6-10.1,6h-1
		c-4.2,0-7.6,3.3-7.6,7.3l0,378.7c0,8.8-8.2,16-18.3,16H462.2H98.3c-12.1,0-21.9-8.6-21.9-19.3V346.6c0-4-3.4-7.3-7.6-7.3H10.3
		c-2.5,0-4.6-1.3-5.7-3.5c-1-2.1-0.7-4.4,0.8-6.2L120.8,191l0.1-0.1l0.1-0.1c0.3-0.4,0.6-0.8,0.9-1.1l0.1-0.1l0.1-0.1l2.7-3.2
		c1.2-1.4,3-2.2,4.9-2.2c0.4,0,0.8,0,1.2,0.1c0.5,0.1,1.1,0.2,1.6,0.2c0.2,0,0.4,0,0.6,0c0.4,0,0.8,0,1.3,0l299.9,0
		c4.3,0,7.7-3.3,7.7-7.3v-12.5c0-4-3.4-7.3-7.6-7.3H432c-5.5,0-8.8-3.1-10.1-6c-1.4-3.1-0.8-6.3,1.6-8.9L545.6,7.6
		C547.7,5.3,550.8,4,554.1,4 M554.1,0c-4.2,0-8.5,1.6-11.5,4.9L420.6,139.7c-7.8,8.7-1,21.6,11.5,21.6h2.1c2,0,3.6,1.5,3.6,3.3v12.5
		c0,1.8-1.7,3.3-3.7,3.3c0,0,0,0,0,0c0,0,0,0,0,0H134.1c-0.5,0-1,0-1.6,0.1c-0.1,0-0.2,0-0.3,0c-0.3,0-0.6,0-0.8-0.1
		c-0.7-0.1-1.3-0.2-2-0.2c-2.9,0-5.9,1.2-7.9,3.7l-2.7,3.2c-0.4,0.4-0.8,0.9-1.1,1.4L2.3,327c-5.4,6.5-0.7,16.3,7.9,16.3h58.5
		c2,0,3.6,1.5,3.6,3.3v193.5c0,12.8,11.6,23.3,25.9,23.3h363.9c0,0,0,0,0,0h187.1c12.3,0,22.3-9,22.3-20l0-378.7
		c0-1.8,1.6-3.3,3.6-3.3h1c12.4,0,19.3-13,11.5-21.6L565.6,4.9C562.6,1.6,558.4,0,554.1,0L554.1,0z"/>
</g>
</svg>
