<?xml version="1.0" encoding="UTF-8"?><svg id="Layer_1" xmlns="http://www.w3.org/2000/svg" viewBox="0 0 112 101"><defs><style>.cls-1{fill:#476ca9;stroke:#1b1464;stroke-linecap:round;stroke-linejoin:round;stroke-width:3px;}</style></defs><path class="cls-1" d="M84.9468,15.5h-7.5452c.059-.4927,.0984-.9914,.0984-1.5,0-6.9036-5.5964-12.5-12.5-12.5h-18c-6.9036,0-12.5,5.5964-12.5,12.5,0,.5086,.0394,1.0073,.0984,1.5h-7.5452C12.9406,15.5,1.5,26.9406,1.5,41.0532v32.8936c0,14.1127,11.4406,25.5532,25.5532,25.5532h57.8937c14.1126,0,25.5532-11.4406,25.5532-25.5532V41.0532c0-14.1126-11.4406-25.5532-25.5532-25.5532Zm-28.4468,65c-12.7026,0-23-10.2975-23-23s10.2974-23,23-23,23,10.2974,23,23-10.2974,23-23,23Z"/></svg>