<?xml version="1.0" encoding="UTF-8"?><svg id="Layer_1" xmlns="http://www.w3.org/2000/svg" xmlns:xlink="http://www.w3.org/1999/xlink" viewBox="0 0 1060 612"><defs><style>.cls-1,.cls-2{opacity:.31;}.cls-3{fill:url(#radial-gradient-5);}.cls-4{fill:url(#radial-gradient-4);}.cls-5{fill:url(#radial-gradient);}.cls-6{fill:url(#radial-gradient-2);}.cls-7{fill:#1b1464;}.cls-8{fill:url(#radial-gradient-3);}.cls-2{fill:#fff;stroke:#1b1464;stroke-linecap:round;stroke-linejoin:round;stroke-width:4px;}.cls-9{fill:#f2f2f2;}</style><radialGradient id="radial-gradient" cx="133.4899" cy="438.8835" fx="115.9123" fy="413.91" r="416.2871" gradientTransform="translate(113.7027 241.7913) rotate(25.2392) scale(.9729 .4207) skewX(-2.8103)" gradientUnits="userSpaceOnUse"><stop offset="0" stop-color="#7f5c00" stop-opacity=".4"/><stop offset=".3238" stop-color="#6f4b00" stop-opacity=".6174"/><stop offset=".9772" stop-color="#543000" stop-opacity=".99"/></radialGradient><radialGradient id="radial-gradient-2" cx="140.9496" cy="404.1924" fx="140.9496" fy="527.0768" r="123.0194" gradientUnits="userSpaceOnUse"><stop offset="0" stop-color="#a9aa00" stop-opacity="0"/><stop offset=".331" stop-color="#c3c900" stop-opacity=".3732"/><stop offset=".6525" stop-color="#dae600" stop-opacity=".7101"/><stop offset=".8771" stop-color="#e9f800" stop-opacity=".9192"/><stop offset=".9861" stop-color="#efff00"/></radialGradient><radialGradient id="radial-gradient-3" cx="180.9074" cy="421.1734" fx="180.9074" fy="544.0577" r="123.0194" gradientUnits="userSpaceOnUse"><stop offset="0" stop-color="#006a00" stop-opacity="0"/><stop offset=".4505" stop-color="#037f00" stop-opacity=".502"/><stop offset=".811" stop-color="#058e00" stop-opacity=".8612"/><stop offset=".9861" stop-color="#069400"/></radialGradient><radialGradient id="radial-gradient-4" cx="95.9918" cy="421.1734" fx="95.9918" fy="544.0577" r="123.0194" gradientUnits="userSpaceOnUse"><stop offset="0" stop-color="#d494ff" stop-opacity="0"/><stop offset=".331" stop-color="#c864ff" stop-opacity=".3732"/><stop offset=".6525" stop-color="#be39ff" stop-opacity=".7101"/><stop offset=".8771" stop-color="#b81fff" stop-opacity=".9192"/><stop offset=".9861" stop-color="#b615ff"/></radialGradient><radialGradient id="radial-gradient-5" cx="140.9496" cy="342.2679" fx="140.9496" fy="465.1523" r="123.0194" gradientUnits="userSpaceOnUse"><stop offset="0" stop-color="#942100" stop-opacity="0"/><stop offset=".331" stop-color="#bb380f" stop-opacity=".3732"/><stop offset=".6525" stop-color="#df4d1d" stop-opacity=".7101"/><stop offset=".8771" stop-color="#f65926" stop-opacity=".9192"/><stop offset=".9861" stop-color="#ff5f2a"/></radialGradient></defs><g class="cls-1"><path class="cls-9" d="M439.6523,574.9795c-13.1787,0-23.8999-9.5342-23.8999-21.2539v-193.4922c0-2.8975-2.5229-5.2539-5.6245-5.2539h-58.5469c-3.2681,0-6.1406-1.7969-7.4966-4.6885-1.3193-2.8154-.9106-5.9336,1.0933-8.3418l115.3716-138.5986c.3828-.5,.7285-.9155,1.0815-1.3032l2.7573-3.3086c1.5654-1.8809,3.8936-2.9595,6.3882-2.9595,.5396,0,1.0815,.0513,1.6104,.1523,.4067,.0771,.8105,.1167,1.2012,.1167,.1445,0,.2891-.0054,.4341-.0161,.4639-.0347,.9336-.0522,1.4072-.0522h299.8755c3.1992,0,5.7627-2.356,5.7627-5.252v-12.4941c0-2.897-2.5234-5.2539-5.624-5.2539h-2.0957c-5.374,0-9.9326-2.7529-11.8975-7.1841-1.6709-3.7681-.9502-7.9141,1.9277-11.0908L885.4863,19.9058c2.4375-2.6909,6.0713-4.2339,9.9697-4.2339s7.5322,1.543,9.9697,4.2339l122.1084,134.7993c2.8779,3.1768,3.5986,7.3228,1.9277,11.0908-1.9648,4.4312-6.5234,7.1841-11.8975,7.1841h-.9814c-3.1006,0-5.624,2.3569-5.624,5.2539l-.001,378.7456c0,9.9248-9.0957,18-20.2754,18H439.6523Z"/><path class="cls-7" d="M895.4562,17.6718c3.3352,0,6.4288,1.3036,8.4877,3.5765l122.1084,134.7996c2.3655,2.6113,2.9419,5.8686,1.5813,8.9367-1.285,2.8982-4.6051,5.9951-10.0691,5.9951h-.9817c-4.2041,0-7.6244,3.2542-7.6244,7.2542v378.7459c-.0001,8.8224-8.1984,15.9999-18.2755,15.9999H439.6521c-12.0755,0-21.8997-8.6374-21.8997-19.2541v-193.4917c0-4-3.4202-7.2542-7.6243-7.2542h-58.5473c-2.5216,0-4.6469-1.3225-5.6852-3.5376-.9817-2.0946-.6754-4.4173,.8195-6.2131l115.3712-138.5992,.0557-.067,.0528-.0694c.2925-.3842,.6003-.7541,.9149-1.0994l.0603-.0661,.0573-.0689,2.6979-3.2411c1.1842-1.4227,2.9526-2.2386,4.8516-2.2386,.4143,0,.83,.0392,1.2354,.1165,.5303,.1011,1.0611,.1523,1.5776,.1523,.1925,0,.3854-.007,.5793-.0214,.4208-.0312,.8447-.047,1.2601-.047h299.923c4.2543,.0001,7.7155-3.2531,7.7155-7.2519v-12.4939c0-4-3.4203-7.2542-7.6245-7.2542h-2.0956c-5.4639,0-8.784-3.0969-10.0691-5.9951-1.3605-3.0681-.7842-6.3254,1.5812-8.9367L886.9683,21.2483c2.059-2.2729,5.1527-3.5765,8.4879-3.5765m0-4c-4.2493,0-8.4987,1.6304-11.4523,4.8911l-122.1085,134.7996c-7.8453,8.6607-.9811,21.6172,11.4524,21.6172h2.0956c2.0017,0,3.6245,1.457,3.6245,3.2542v12.4939c0,1.8298-1.6786,3.252-3.7155,3.252h-.0088c-.0129-.0001-.0257-.0001-.0386-.0001H475.4292c-.5236,0-1.0424,.0199-1.556,.058-.0946,.007-.1891,.0104-.2834,.0104-.2783,0-.5549-.0294-.8288-.0816-.6547-.1248-1.3195-.1872-1.9842-.1872-2.9414,0-5.8808,1.2227-7.926,3.6796l-2.6979,3.2411c-.401,.4401-.7805,.8971-1.141,1.3707l-115.3712,138.5992c-5.4393,6.5344-.6803,16.3098,7.94,16.3098h58.5473c2.0017,0,3.6243,1.457,3.6243,3.2542v193.4917c0,12.8429,11.5957,23.2541,25.8997,23.2541H990.683c12.3024,0,22.2754-8.9543,22.2754-19.9999V178.2339c.0001-1.7972,1.6228-3.2542,3.6245-3.2542h.9817c12.4336,0,19.2977-12.9565,11.4524-21.6172L906.9086,18.5629c-2.9537-3.2607-7.2031-4.8911-11.4524-4.8911h0Z"/></g><line class="cls-2" x1="454.1702" y1="366.1809" x2="774.1702" y2="366.1809"/><rect class="cls-5" x="94.8859" y="418.6809" width="58.3133" height="157.2447" rx="29.1566" ry="29.1566"/><circle class="cls-6" cx="124.0655" cy="418.3469" r="61.9578"/><circle class="cls-8" cx="164.0233" cy="435.3279" r="61.9578"/><circle class="cls-4" cx="79.1076" cy="435.3279" r="61.9578"/><circle class="cls-3" cx="124.0655" cy="356.4224" r="61.9578"/></svg>